<svg id="Layer_1" data-name="Layer 1" xmlns="http://www.w3.org/2000/svg" viewBox="0 0 100 100">
  <defs>
    <style>
      .cls-1 {
        fill: #fff;
      }

      .cls-2 {
        fill: #227f6c;
        opacity: 0.6;
      }
    </style>
  </defs>
  <rect class="cls-1" width="100" height="100"/>
  <path class="cls-2" d="M56.45,44.66c.64,2.37,5.19,20.49-6.75,37.09-2.23-1-19.15-8.92-24.48-28.67C24.59,50.72,20,32.6,32,16,34.21,17,51.13,24.92,56.45,44.66Z"/>
  <path class="cls-2" d="M43,44.66C42.31,47,37.76,65.15,49.7,81.75c2.23-1,19.16-8.92,24.48-28.67.64-2.36,5.19-20.48-6.75-37.08C65.19,17,48.27,24.92,43,44.66Z"/>
  <ellipse class="cls-2" cx="69.65" cy="62.4" rx="28.11" ry="16.17" transform="translate(-23.72 67.53) rotate(-45)"/>
  <path class="cls-2" d="M41.63,51.26c11.76,11.76,8.59,28.79,8.14,31-2.23.45-19.25,3.61-31-8.14-1.41-1.41-11.92-12.38-8.14-31C12.84,42.67,29.87,39.51,41.63,51.26Z"/>
</svg>
